<svg width="290" height="246" xmlns="http://www.w3.org/2000/svg" xmlns:xlink="http://www.w3.org/1999/xlink"><svg data-name="Layer 1" width="21.23" height="42.01" x="133.333" y="70" xmlns="http://www.w3.org/2000/svg"><path d="M21.23.31V7H17.4a3.55 3.55 0 0 0-2.85.91 4.26 4.26 0 0 0-.74 2.72v4.77H21l-1 7.47h-6.19V42H6.27V22.85H0v-7.47h6.27V9.85q0-4.69 2.55-7.28A9 9 0 0 1 15.63 0a39.57 39.57 0 0 1 5.6.31z" fill="#fff"/></svg><svg data-name="Layer 1" width="42.01" height="42.01" y="203.333" xmlns="http://www.w3.org/2000/svg"><path d="M37.25 35.49V17.77h-3.69a11.77 11.77 0 0 1 .57 3.58 12.12 12.12 0 0 1-1.75 6.36 12.76 12.76 0 0 1-4.76 4.59 13.13 13.13 0 0 1-6.56 1.7 12.78 12.78 0 0 1-9.19-3.71 12 12 0 0 1-3.83-9 11.77 11.77 0 0 1 .49-3.56H4.68v17.76a1.63 1.63 0 0 0 1.6 1.67h29.3a1.63 1.63 0 0 0 1.17-.47 1.59 1.59 0 0 0 .5-1.2zm-7.77-14.57A7.75 7.75 0 0 0 27 15.14a8.28 8.28 0 0 0-6-2.4 8.25 8.25 0 0 0-5.91 2.39 7.75 7.75 0 0 0-2.47 5.78 7.75 7.75 0 0 0 2.47 5.79A8.25 8.25 0 0 0 21 29.1a8.28 8.28 0 0 0 6-2.4 7.75 7.75 0 0 0 2.48-5.78zm7.76-9.84V6.56a1.84 1.84 0 0 0-.54-1.31 1.8 1.8 0 0 0-1.31-.56h-4.78a1.8 1.8 0 0 0-1.31.56 1.84 1.84 0 0 0-.54 1.31v4.52A1.87 1.87 0 0 0 30.6 13h4.8a1.87 1.87 0 0 0 1.85-1.89zM42 5.39v31.23A5.41 5.41 0 0 1 36.62 42H5.39a5.19 5.19 0 0 1-3.8-1.59A5.19 5.19 0 0 1 0 36.62V5.39a5.19 5.19 0 0 1 1.59-3.8A5.19 5.19 0 0 1 5.39 0h31.23a5.19 5.19 0 0 1 3.8 1.59A5.19 5.19 0 0 1 42 5.39z" fill="#fff"/></svg><svg data-name="Layer 1" width="51.78" height="42.06" x="226" y="128" xmlns="http://www.w3.org/2000/svg"><path d="M51.78 5a22.23 22.23 0 0 1-5.32 5.52v1.38a30.15 30.15 0 0 1-1.25 8.53 30.81 30.81 0 0 1-3.76 8.13 32.1 32.1 0 0 1-6.06 6.92 27 27 0 0 1-8.48 4.8 31 31 0 0 1-10.62 1.8A29.47 29.47 0 0 1 0 37.29a22.71 22.71 0 0 0 2.56.13 20.78 20.78 0 0 0 13.17-4.53 10.63 10.63 0 0 1-9.92-7.36 13.45 13.45 0 0 0 2 .16 11 11 0 0 0 2.79-.36 10.44 10.44 0 0 1-6.09-3.67 10.25 10.25 0 0 1-2.41-6.75v-.13a10.52 10.52 0 0 0 4.8 1.34 10.6 10.6 0 0 1-3.45-3.78 10.34 10.34 0 0 1-1.28-5.07 10.4 10.4 0 0 1 1.45-5.33 30.08 30.08 0 0 0 9.71 7.83A29.57 29.57 0 0 0 25.53 13a11.79 11.79 0 0 1-.26-2.43 10.23 10.23 0 0 1 3-7.48 10.64 10.64 0 0 1 15 0l.21.22A20.81 20.81 0 0 0 50.33.8a10.3 10.3 0 0 1-4.67 5.85A21.14 21.14 0 0 0 51.78 5z" fill="#fff"/></svg><svg data-name="Layer 1" width="34.75" height="42" x="42.01" y="203.333" xmlns="http://www.w3.org/2000/svg"><path d="M22.13 29.15v5q0 1.57-.91 1.57a1.5 1.5 0 0 1-1.06-.52v-7.11a1.5 1.5 0 0 1 1.06-.54q.91 0 .91 1.6zm7.92 0v1.08h-2.1v-1.06q0-1.59 1.06-1.59t1 1.59zM7.42 24h2.5v-2.14h-7.3v2.2h2.46V37.4h2.34V24zm6.75 13.4h2.09V25.82h-2.09v8.86a1.86 1.86 0 0 1-1.31 1 .48.48 0 0 1-.49-.47 6.52 6.52 0 0 1 0-.82v-8.57h-2.14V35a5.79 5.79 0 0 0 .19 1.71 1.26 1.26 0 0 0 1.36.87 3.43 3.43 0 0 0 2.39-1.43v1.25zm10.05-3.47v-4.6A8.33 8.33 0 0 0 24 27a1.63 1.63 0 0 0-1.67-1.31A2.82 2.82 0 0 0 20.16 27v-5.1h-2.08v15.5h2.09v-1.13a2.91 2.91 0 0 0 2.18 1.31A1.62 1.62 0 0 0 24 36.27a8.61 8.61 0 0 0 .22-2.35zm7.92-.24v-.3H30a11.6 11.6 0 0 1 0 1.43.9.9 0 0 1-.94.85q-1.08 0-1.08-1.61V32h4.19v-2.41a4.65 4.65 0 0 0-.66-2.72 3.2 3.2 0 0 0-5 0 4.52 4.52 0 0 0-.66 2.72v4.05a4.4 4.4 0 0 0 .66 2.72 3 3 0 0 0 2.49 1.2 2.9 2.9 0 0 0 3-2.51 10.31 10.31 0 0 0 .09-1.36zM17.89 12.3V7.38q0-1.61-1-1.61t-1 1.61v4.92q0 1.64 1 1.64t1-1.64zm16.85 17.6a40.6 40.6 0 0 1-.61 8.2 4.45 4.45 0 0 1-1.36 2.32 4.1 4.1 0 0 1-2.39 1.08 125.31 125.31 0 0 1-13 .49 125.31 125.31 0 0 1-13-.49A4.15 4.15 0 0 1 2 40.42 4.28 4.28 0 0 1 .63 38.1 39.76 39.76 0 0 1 0 29.9a40.6 40.6 0 0 1 .61-8.2A4.45 4.45 0 0 1 2 19.37a4.25 4.25 0 0 1 2.41-1.1q4.29-.47 13-.47t13 .47a4.4 4.4 0 0 1 3.75 3.42 39.76 39.76 0 0 1 .58 8.21zM11.35 0h2.39l-2.83 9.35v6.35H8.57V9.35a39.68 39.68 0 0 0-1.43-5Q6.27 2 5.61 0H8.1l1.67 6.16zM20 7.8v4.1a4.59 4.59 0 0 1-.66 2.76 2.88 2.88 0 0 1-2.49 1.19 2.9 2.9 0 0 1-2.46-1.19 4.68 4.68 0 0 1-.66-2.76V7.8a4.59 4.59 0 0 1 .66-2.74 2.9 2.9 0 0 1 2.46-1.19 2.88 2.88 0 0 1 2.49 1.19A4.59 4.59 0 0 1 20 7.8zM27.87 4v11.7h-2.13v-1.27a3.37 3.37 0 0 1-2.41 1.45A1.31 1.31 0 0 1 22 15a6 6 0 0 1-.19-1.76V4h2.13v8.6a6.14 6.14 0 0 0 0 .82.49.49 0 0 0 .47.52 1.87 1.87 0 0 0 1.31-1V4h2.16z" fill="#fff"/></svg><svg width="64" height="64" viewBox="0 0 24 24" x="162" y="128" xmlns="http://www.w3.org/2000/svg"><path d="M10 3.002c4.411 0 8 2.849 8 6.35 0 3.035-3.029 6.311-7.925 6.311-1.58 0-2.718-.317-3.718-.561-.966.593-1.256.813-3.006 1.373.415-1.518.362-2.182.331-3.184C2.845 12.29 2 11.222 2 9.352c0-3.501 3.589-6.35 8-6.35zM10 1C4.719 1 0 4.526 0 9.352c0 1.711.615 3.391 1.705 4.695.047 1.527-.851 3.718-1.661 5.312 2.168-.391 5.252-1.258 6.649-2.115 1.181.289 2.312.421 3.382.421 5.903 0 9.925-4.038 9.925-8.313C20 4.5 15.249 1 10 1zm11.535 11.174a9.229 9.229 0 0 1-.601 1.416c1.677 1.262 2.257 3.226.464 5.365-.021.745-.049 1.049.138 1.865-.892-.307-.979-.392-1.665-.813-2.127.519-4.265.696-6.089-.855-.562.159-1.145.278-1.74.364 1.513 1.877 4.298 2.897 7.577 2.1.914.561 2.933 1.127 4.352 1.385-.53-1.045-1.117-2.479-1.088-3.479 1.755-2.098 1.543-5.436-1.348-7.348zM6.5 8.411a1.071 1.071 0 1 0 0 2.142 1.071 1.071 0 0 0 0-2.142zm3.5 0a1.071 1.071 0 1 0 0 2.142 1.071 1.071 0 0 0 0-2.142zm3.5 0a1.071 1.071 0 1 0 0 2.142 1.071 1.071 0 0 0 0-2.142z" fill="#d4953f"/></svg><svg width="64" height="64" viewBox="0 0 24 24" x="162" xmlns="http://www.w3.org/2000/svg"><path d="M21.169 19.754c.522-.79.831-1.735.831-2.754a5 5 0 1 0-5 5 4.977 4.977 0 0 0 2.755-.832L22.586 24 24 22.586l-2.831-2.832zM17 20c-1.654 0-3-1.346-3-3s1.346-3 3-3 3 1.346 3 3-1.346 3-3 3zm-4.89 2H5l2.599-3h2.696a7.004 7.004 0 0 0 1.815 3zM10 17H0V0h22v12.11a7.033 7.033 0 0 0-2-1.425V2H2v13h8.295A6.956 6.956 0 0 0 10 17zm-4-4H4V7h2v6zm3 0H7V4h2v9zm3 0h-2V9h2v4z" fill="#d4953f"/></svg><svg width="64" height="64" viewBox="0 0 24 24" x="226" y="64" xmlns="http://www.w3.org/2000/svg"><path d="M22 2v22H2V2h3C6.23 2 7.181.916 8 0h8c.82.916 1.771 2 3 2h3zM11 3a1 1 0 1 0 2 0 1 1 0 0 0-2 0zm9 1h-4l-2 2h-3.897L8 4H4v18h16V4zM7 13.729l.855-.791c1 .484 1.635.852 2.76 1.654 2.113-2.399 3.511-3.616 6.106-5.231l.279.64C14.859 11.87 13.291 13.95 11.033 18 9.64 16.36 8.711 15.314 7 13.729z" fill="#d4953f"/></svg><svg width="64" height="64" viewBox="0 0 24 24" fill-rule="evenodd" clip-rule="evenodd" x="226" xmlns="http://www.w3.org/2000/svg"><path d="M22.001 13c0-5.522-4.475-10.001-10.002-10.001C6.476 2.999 1.998 7.478 1.998 13c0 4.316 3.087 10 10.001 10 6.93 0 10.002-5.693 10.002-10zm-10.002 8c-4.411 0-8.001-3.59-8.001-8 0-4.413 3.59-8.001 8.001-8.001 4.412 0 8.002 3.588 8.002 8.001 0 4.41-3.59 8-8.002 8zm3-4H8.994l.005-1.571 3.821-4.825H8.999V9h5.992v1.579l-3.779 4.84h3.787V17zM.802 8.715A4.99 4.99 0 0 1 0 5.997a4.993 4.993 0 0 1 7.712-4.192 12.037 12.037 0 0 0-6.91 6.91zM19.003 1c-.947 0-1.895.268-2.719.803a12.06 12.06 0 0 1 6.914 6.909 4.99 4.99 0 0 0 .801-2.717A4.994 4.994 0 0 0 19.003 1z" fill="#d4953f"/></svg><svg version="1" width="133.333" height="133.333" viewBox="0 0 370 370" y="70" xmlns="http://www.w3.org/2000/svg"><g fill="#fff"><path d="M194.7 20.7c-.4 10.4-.7 21.8-.7 25.5V53h4.9c11.2 0 31.8 5.4 45.6 12 17.6 8.5 35.6 23.3 47.1 38.9 3.2 4.2 6 8 6.4 8.4.7.8 42.3-24.7 42.8-26.3.5-1.5-8.9-14.5-17.6-24.5-17.5-19.9-40.7-36.3-66-46.7C240.6 8 213.5 2 199.4 2h-4.1l-.6 18.7z"/><path d="M171.5 11c-44.3 3.2-84.3 22.2-115.6 54.7-61.3 63.7-66.2 163.7-11.5 233.8 8.5 10.8 26.1 27.5 37.6 35.7 10.9 7.7 31.5 18.4 44.1 22.7 76.8 26.4 162.1-1.9 207-68.8 35.4-52.6 40.3-119.7 13-177.6-2.7-5.8-5.6-10.8-6.5-11.1-1.2-.4-39.6 20.7-43 23.7-.5.4.9 4.5 3.2 9.1 4.8 9.8 8.3 20.1 10.8 31.9 2.5 11.6 2.5 36.1.1 47.9-5.7 26.7-18.4 50-37.3 68-4.4 4.1-9.4 8.6-11.1 9.8l-3.3 2.3V266h-16v37.1l-4.2 1.9-4.3 1.9-.3-42.9-.2-43h-16v91.7l-5.1 1.1c-2.8.7-5.5 1.2-6 1.2s-.9-14.6-.9-36v-36h-16v74h-8V215h-15v100.7l-4.2-.8c-2.4-.4-4.6-.8-5-.9-.5 0-.8-7.4-.8-16.5V281h-16v27.9l-4.5-1.7-4.5-1.6V231h-15l-.2 33-.3 33-4.7-3.3-4.7-3.2-.1-12.3V266H92v5.2l-.1 5.3L88 272c-13.8-15.6-24.3-37.6-28.7-59.8-2.1-10.7-2.3-33.6-.4-44.2 2-11.2 6.7-25.3 12.1-36 20.5-40.7 59.9-66.9 106.3-70.5l8.7-.7V10l-2.2.1c-1.3.1-6.8.5-12.3.9z"/></g></svg><svg version="1" width="162" height="70" viewBox="0 0 1450 625" xmlns="http://www.w3.org/2000/svg"><path d="M1399 2.9c-8.1 2.6-15.7 9.9-18.5 17.9-1.1 2.9-1.9 9.3-2.2 16.9l-.6 12.2-9.1.3-9.1.3-.3 3.3c-.5 5.3.9 6.2 10.4 6.2h8.4l.2 51.2.3 51.3h10l.3-51.3.2-51.2h13.4c14.9 0 16-.4 15.4-6.2l-.3-3.3-14.4-.3-14.3-.3.4-11.7c.3-9.6.8-12.4 2.6-15.9 4.2-8 12.6-11.5 23.4-9.6 7.1 1.2 8.2.7 9.2-4.3 1.1-4.8-1-5.8-12.8-6.1-5.5-.1-11.2.1-12.6.6zm-69.3 1.7c-.4.4-.7 36.2-.7 79.6v78.9l4.8-.3 4.7-.3V4.5l-4-.3c-2.3-.2-4.4 0-4.8.4zm-955.2 7.9c-7.3 7.2 2.8 17.8 10.9 11.4 2-1.6 2.6-2.9 2.6-5.8 0-7.4-8.3-10.9-13.5-5.6zm-336 .7c-.3.7-.4 34.6-.3 75.3l.3 74h10l.3-30.8.2-30.7h46.7l19.2 31 19.3 31h4.9c4.6 0 4.9-.2 4.9-2.5 0-1.6-7.2-14-18.5-32.1-10.2-16.2-18.5-29.6-18.5-29.9 0-.2 1.4-.6 3-1 1.7-.4 5.8-2.5 9.1-4.7C145.7 75 143.9 32.2 116 18c-10-5.1-17.2-6-48.2-6-22.2 0-29 .3-29.3 1.2zM104 24.8c16.8 5.6 26.3 21 23 37.6-2.2 11.4-7.7 18.8-17.4 23.9l-6.1 3.2-27.2.3-27.3.3V21.8l24.3.4c21.3.4 25 .7 30.7 2.6zm99.5 23.4c-17.6 2.4-33.6 18.2-39.1 38.8-2.1 8.2-2.5 29.1-.5 37 4.6 18.8 17.9 34 34.2 39.1 11.7 3.7 29.6 2.1 38.9-3.3 5.2-3.1 14-11.9 14-14.1 0-1.8-3.6-5.6-5.4-5.7-.5 0-3.1 2.1-5.8 4.6-2.7 2.5-7.4 5.7-10.6 7.2-5 2.3-7 2.7-15.7 2.7-9 0-10.6-.3-16-2.9-14.1-6.9-24.5-24.4-24.5-41.3V105l40.8-.2 40.7-.3-.2-9.3c-.7-31.7-21.6-51-50.8-47zm21.1 13.1c6.1 3.2 11.5 8.7 14.8 15.2 2.5 5.2 4.5 12.2 4.6 16.2V95h-70.3l.6-3.3c2.4-14.6 13.5-28 26.6-32.2 6.7-2.2 17.5-1.3 23.7 1.8zm224.1-13.2c-16.4 2.4-30.9 15.6-37.4 34-2.3 6.3-2.7 9.5-3.1 21.4-.5 16.6 1 24.2 6.4 34.6 9.5 18 24 26.9 43.8 26.9 15.5 0 28.7-5.6 35.6-15.2 3.3-4.5 3-6.4-1.4-8.7-2.4-1.3-2.8-1.1-8.6 4.2-4.9 4.6-7.4 6.1-13.1 7.8-19.3 5.9-38.5-2.9-47.4-21.6-3.4-7.1-5.5-15.8-5.5-22.7V105l40.8-.2 40.7-.3.3-7.4c.4-8.8-2.5-21.2-6.5-28-9.4-16.1-25.7-23.8-44.6-21zm20.8 13.1c10.2 5.3 18 16.7 19.2 28.2l.6 5.6h-35.2c-28.7 0-35.1-.2-35.1-1.3 0-2.5 4-13 6.6-17.5 3-5.1 9.5-11.7 13.9-13.9 9.6-5.1 21.4-5.4 30-1.1zm390-13.1c-17.9 2.2-33.4 15.2-39.4 33-5 14.7-4.8 37.7.4 51.4 8 21.3 23.9 32.5 46.2 32.5 14.7 0 23.5-3.3 32.9-12.2 7-6.6 11-13 14.2-22.6 2.4-7 2.6-9.1 2.6-23.7s-.2-16.7-2.6-23.7C905.5 58 885 44.9 859.5 48.1zM877 59.6c10.4 3.1 18.8 10.4 23.8 20.8 4.1 8.4 5.6 15.5 5.5 26.6-.1 21.4-8.5 37-23.8 44.6-5.4 2.6-7 2.9-15.5 2.9-8.7 0-10.1-.3-16.1-3.2-11.8-5.8-20-17.4-22.9-32.1-1.7-8.7-.8-25 1.9-32.6 7.7-21.8 27.1-32.9 47.1-27zM1088 48c-7.8 1-14.2 4.1-20.5 10l-5.4 5.2-.3-6.4-.3-6.3h-10v112h10l.5-38.5c.5-36.8.6-38.7 2.7-43.9 6.1-14.9 14.6-21 30.8-22l9-.6.3-3.6c.2-2.1-.2-4-1-4.6-1.9-1.5-9.5-2.2-15.8-1.3zm60.7.1c-12.7 1.4-24.6 9-28.8 18.3-2.5 5.6-2.5 17.6 0 23.1 2.3 5.1 8.9 11.1 15.6 14.1 2.8 1.3 11.3 3.9 18.7 5.8 20.9 5.3 30 11 32.9 20.6 2.6 8.6-4.3 18.8-15.2 22.6-7.4 2.6-23.3 2.6-30.8 0s-14.8-9.7-15.7-15.4c-.8-5.2-2.2-6.4-7.1-6-3.4.3-3.8.6-4.1 3.4-.2 1.7.7 5.6 1.8 8.7 3.8 10.2 13.8 17.8 27.1 20.7 8 1.8 27.9.8 34.2-1.6 6.8-2.7 13.7-8.2 17.2-13.8 2.6-4.2 3-6.1 3.3-13.1.3-6.7 0-9.1-1.8-13.3-4.4-10.2-15-16.5-37-22.2-21.4-5.5-29.2-10.4-30.5-19.4-1.9-12.4 8.1-21.2 25.1-22.3 6.5-.5 9.5-.1 15 1.5 10.9 3.4 16.2 8.8 18.8 19.1 1 4.2 1.4 4.6 4.4 4.9 4.3.4 6.2-1.2 6.2-5.2 0-9.3-6.5-19.9-15.3-25-8.4-4.9-21.3-7-34-5.5zm107.1 0c-9 1.3-16.4 5.4-24.4 13.3-11.9 11.9-16.4 24.2-16.4 44.8 0 14.5 1.1 20.1 6 30.3 9.3 19.1 23.9 28.5 44.4 28.5 15.3 0 27.4-5 35.3-14.7 4-4.9 3.9-6.2-.9-9-2.6-1.7-2.7-1.6-8.8 4-4.9 4.6-7.4 6.1-13.1 7.8-23.7 7.2-45.8-7.4-51.4-33.8-.8-3.7-1.5-8.5-1.5-10.5V105l40.8-.2 40.7-.3-.2-10.5c-.2-15.6-4.4-26.1-14.1-35.2-9.7-9.1-22.3-12.8-36.4-10.7zm20.9 13.2c2.9 1.5 6.9 4.3 8.9 6.4 4.7 4.7 9.4 14.7 10.1 21.7l.6 5.6h-70.5l.7-3.3c3.3-15.2 13.2-27.4 25.9-31.9 7.3-2.6 17.4-2 24.3 1.5zm-1014.3-10c-.2.7 9.2 26 20.9 56.3l21.4 54.9h9.8l21.2-54.5c11.7-30 21.2-55.2 21-56-.2-1.1-1.6-1.5-5.2-1.5h-4.9L328.8 96c-9.8 25-18.1 46.3-18.5 47.2-.6 1.2-5.8-11.1-17.2-40.5-22.5-57.9-20-52.7-25.6-52.7-2.8 0-4.8.5-5.1 1.3zm113.1-.1c-.3.7-.4 26-.3 56.3l.3 55 4.8.3 4.7.3V50h-4.5c-2.7 0-4.8.5-5 1.2zm136.3 0c-.6 1.5 30.6 109.6 32 111 .5.5 2.8.8 5.2.6l4.2-.3 14.4-44.4c7.9-24.5 14.4-45.1 14.4-46 0-3 1.8.5 4 7.9 1.2 4.1 7.8 24.5 14.6 45.2l12.5 37.8h4.9c2.8 0 5-.2 5-.5s7.2-25.3 16.1-55.7c9.8-33.6 15.7-55.4 15.1-56-.5-.5-3.1-.8-5.7-.6l-4.8.3-11.2 39c-6.1 21.4-12 42.3-13 46.2-1 4-2 7.2-2.1 7-.1-.1-5.7-17.5-12.4-38.7-6.6-21.2-13.2-42-14.6-46.3l-2.6-7.7h-4.9c-2.7 0-4.9.2-4.9.4 0 .6-29 91.9-29.3 92.3-.2.1-1.1-3-2.1-7-.9-3.9-6.8-24.8-12.9-46.2l-11.3-39-5.1-.3c-3.4-.2-5.2.1-5.5 1zm201.7 0c-.3.7 9.2 25.6 21.1 55.2l21.5 53.9-3.2 9.1c-8 22.5-13.7 28.2-27.3 27.4l-6.1-.3-.3 4.4c-.2 2.8.1 4.7 1 5.2 2.6 1.7 17.1 1 21.5-1 5.1-2.4 11.5-8.8 14.2-14.4 4.3-8.9 53.1-138.2 52.7-139.4-.4-.8-2.3-1.3-5.4-1.3h-4.9l-17.9 47c-9.8 25.8-18.1 47-18.4 47-.3 0-9.1-21.2-19.5-47l-18.9-47h-4.8c-3 0-5 .5-5.3 1.2zm225.2-.5c-.4.3-.7 18.2-.7 39.7 0 41.6.6 48 5 56.6 3.2 6.4 9.4 12.5 15.3 15.1 4.7 2.2 6.6 2.4 19.2 2.4 13.2 0 14.3-.2 19.9-2.8 3.3-1.5 7.9-4.3 10.3-6.3l4.3-3.5v11.2l4.8-.3 4.7-.3v-112l-4.7-.3-4.7-.3-.3 40.3-.3 40.3-2.9 6.3c-3.3 7.2-7.7 11.4-15.6 15.1-4.7 2.2-6.9 2.6-15.5 2.6-12 0-17.9-2.3-22.6-8.8-6-8.2-6.2-10.3-6.7-55l-.4-40.7h-4.2c-2.4 0-4.6.3-4.9.7zm498.6 92.5c-.6.7-1.3 6.5-1.5 12.8-.5 11.9-1.3 14.6-7.3 24.7l-2 3.2 2.4 2.5c3.5 3.7 5.6 3.2 9.6-2.2 5.7-7.6 7.6-15.6 7.3-29.7l-.3-12-3.6-.3c-2.1-.2-4 .2-4.6 1zM95.8 222.1c-42.9 5-74.8 29.1-84.4 64-2.5 8.9-2.5 29.9 0 38.9 6.1 22.3 23.8 40.9 52.1 54.5 14.3 7 22.2 9.9 48.5 18 41.8 12.9 59.4 23.1 66.6 38.9 2.1 4.6 2.8 8 3.2 15.1.8 15.4-2.9 25.9-12.4 35.1-13 12.8-37.3 19-63.9 16.3-37.9-3.8-60.8-22.8-64-53.2l-.7-6.7H-.3l.5 9.7c2 40.4 38.2 73.6 90.3 82.9 13.2 2.3 40.1 2.4 53.7.1 37.4-6.4 63.5-24.5 74.5-51.7 4.3-10.7 5.6-19.1 5-33-.9-21.6-6.6-35.7-20.5-50.2-16.2-17-37.2-27.6-81.2-40.9-33.2-10.1-47.5-16.8-58.1-27-17.2-16.6-16.8-44.2.9-61.1 11.8-11.2 26.1-15.8 49.3-15.9 15.8 0 25.8 2 36.9 7.3 17.9 8.6 27.9 23.6 30.5 46l.6 5.8H223v-6.4c0-3.5-1.1-10.6-2.4-15.9-6.8-26.7-24-46.9-50.9-59.7-21.1-10.1-47.1-13.9-73.9-10.9zM283 276.5V304h-42v31h41.9l.3 79.2c.4 87.2.1 83.3 6.7 97.3 10.4 22.3 34.5 30.7 68.9 23.9l8.2-1.7v-32.9l-2.7.6c-1.6.3-7.4.9-13 1.3-15 .9-21.5-2.2-26-12.2-1.7-3.7-1.8-9.3-2.1-79.8l-.3-75.7H366v-31h-43v-55h-40v27.5zm377 0V304h-42v31h41.9l.3 79.2c.4 87.2.1 83.3 6.7 97.3 10.4 22.3 34.5 30.7 68.9 23.9l8.2-1.7v-32.9l-2.7.6c-1.6.3-7.4.9-13 1.3-15 .9-21.5-2.2-26-12.2-1.7-3.7-1.8-9.3-2.1-79.8l-.3-75.7H743v-31h-43v-55h-40v27.5zm-179.2 25c-29 4.6-53.8 20.7-65.3 42.6-3.3 6.3-6.4 17.2-6.5 22.6v2.3h41v-3.8c0-9 10.5-21.9 22.3-27.2 8.2-3.7 16.1-5.2 27-5.2 19.3.1 32.7 6.5 40.4 19.3 4.7 7.9 6.3 15.3 6.3 29.5v12.2l-29.7.5c-30.9.5-39.8 1.4-55.2 5.7-28.9 8.1-48.7 26.9-54.6 51.6-2.6 11-1.8 30.5 1.7 40.2 9 25.1 31.7 41.5 62.3 45.2 26.6 3.2 50.3-4.1 71.3-21.8 2.8-2.4 5.2-4.2 5.2-3.9 0 1.6 3.1 16.6 4.1 19.4l1.1 3.3H594v-2.8c0-1.6-.9-5.4-1.9-8.4-5.1-14.8-5.4-19.7-6.1-93.8-.5-61.8-.8-70.2-2.4-75.5-10.1-35.1-39.4-53.7-84.1-53.4-5.5.1-13.9.7-18.7 1.4zM546 446.2v23.1l-3.1 4.9c-4.4 6.8-14.7 15.9-22.7 20.1-19 9.9-38.7 11.1-54.9 3.2-14.4-7.1-21-18.9-20.1-35.8.8-13.9 7.7-23.7 21.3-30.2 13.9-6.6 24.8-8.3 55.8-8.4l23.7-.1v23.2zm524.6-145.1c-32.6 4.8-59.3 24.3-74.1 54.4-9.6 19.5-13.5 37.6-13.5 63.4 0 31.4 6.2 54.5 20.5 76.1 19.8 29.9 56.3 46 95.1 42.1 64-6.5 100.9-62 92.3-138.8-5.8-52.3-39-89.7-85.9-96.8-10.3-1.6-25-1.8-34.4-.4zm28.9 33.4c30.7 6.5 50 35 52.1 77.5 1.2 22.3-2.4 41.8-10.9 59-5.4 11-16.9 22.9-26.9 27.8-17.8 8.7-40.2 7.7-56.9-2.4-25.7-15.5-38.7-55.2-32.3-98.2 3.1-21.1 10.1-36.1 22.3-48.2 14.7-14.5 32.5-19.7 52.6-15.5zm-336.4-29.8c0 .5 18.3 51.4 40.7 113.3l40.8 112.4-5.8 15.5c-7.8 20.9-10.2 25.6-17.3 32.7-8.6 8.7-13.9 10.6-31.8 11.2l-13.7.4.2 16.2.3 16.1 6.5 1.2c8 1.5 25.9 1.6 32 .2 18.2-4.2 35.7-19.9 46-41.3 2.9-6 23.4-63.2 51.1-142.6 25.4-72.9 46.4-133.3 46.7-134.3.4-1.6-1.1-1.7-21-1.7h-21.5l-15.8 50.7c-8.7 28-20.6 66.2-26.4 84.9l-10.7 34.2-28.3-84.9-28.3-84.9h-21.9c-12 0-21.9.3-21.8.7zm476.2 83c.3 80.5.4 84.2 2.4 92.8 4 17.4 9.7 28.4 19.7 38.5 7.4 7.4 18.2 13.2 30.2 16.2 7.2 1.8 11.7 2.2 23.9 2.1 26.6 0 45.1-6.1 60.3-19.8 4.8-4.3 5-4.4 5.6-2.2.3 1.2.6 5.9.6 10.4v8.3h38V304h-40v167.7l-3.8 5.9c-4.2 6.4-10.6 12.7-17.1 16.8-14.1 9-42.7 11.8-56.8 5.6-9.3-4.1-17.1-14.3-21-27.7-1.5-5.2-1.7-14.4-2.1-87.1l-.3-81.2h-40l.4 83.7z" fill="#FFF"/></svg><svg width="64" height="64" viewBox="0 0 24 24" x="162" y="64" xmlns="http://www.w3.org/2000/svg"><path d="M24 1H0v16.981h4V23l7-5.019h13z" fill="#49bcb1"/></svg></svg>