<svg version="1.0" xmlns="http://www.w3.org/2000/svg"
 width="162" height="70" viewBox="0 0 1450.000000 625.000000"
 preserveAspectRatio="xMidYMid meet"><title>logo text</title>
<g transform="translate(0.000000,625.000000) scale(0.100000,-0.100000)"
fill="#FFF" stroke="none">
<path d="M13990 6221 c-81 -26 -157 -99 -185 -179 -11 -29 -19 -93 -22 -169
l-6 -122 -91 -3 -91 -3 -3 -33 c-5 -53 9 -62 104 -62 l84 0 2 -512 3 -513 50
0 50 0 3 513 2 512 134 0 c149 0 160 4 154 62 l-3 33 -144 3 -143 3 4 117 c3
96 8 124 26 159 42 80 126 115 234 96 71 -12 82 -7 92 43 11 48 -10 58 -128
61 -55 1 -112 -1 -126 -6z"/>
<path d="M13297 6204 c-4 -4 -7 -362 -7 -796 l0 -789 48 3 47 3 0 790 0 790
-40 3 c-23 2 -44 0 -48 -4z"/>
<path d="M3745 6125 c-73 -72 28 -178 109 -114 20 16 26 29 26 58 0 74 -83
109 -135 56z"/>
<path d="M385 6118 c-3 -7 -4 -346 -3 -753 l3 -740 50 0 50 0 3 308 2 307 233
0 234 0 192 -310 193 -310 49 0 c46 0 49 2 49 25 0 16 -72 140 -185 321 -102
162 -185 296 -185 299 0 2 14 6 30 10 17 4 58 25 91 47 266 178 248 606 -31
748 -100 51 -172 60 -482 60 -222 0 -290 -3 -293 -12z m655 -116 c168 -56 263
-210 230 -376 -22 -114 -77 -188 -174 -239 l-61 -32 -272 -3 -273 -3 0 341 0
342 243 -4 c213 -4 250 -7 307 -26z"/>
<path d="M2035 5768 c-176 -24 -336 -182 -391 -388 -21 -82 -25 -291 -5 -370
46 -188 179 -340 342 -391 117 -37 296 -21 389 33 52 31 140 119 140 141 0 18
-36 56 -54 57 -5 0 -31 -21 -58 -46 -27 -25 -74 -57 -106 -72 -50 -23 -70 -27
-157 -27 -90 0 -106 3 -160 29 -141 69 -245 244 -245 413 l0 53 408 2 407 3
-2 93 c-7 317 -216 510 -508 470z m211 -131 c61 -32 115 -87 148 -152 25 -52
45 -122 46 -162 l0 -23 -351 0 -352 0 6 33 c24 146 135 280 266 322 67 22 175
13 237 -18z"/>
<path d="M4487 5769 c-164 -24 -309 -156 -374 -340 -23 -63 -27 -95 -31 -214
-5 -166 10 -242 64 -346 95 -180 240 -269 438 -269 155 0 287 56 356 152 33
45 30 64 -14 87 -24 13 -28 11 -86 -42 -49 -46 -74 -61 -131 -78 -193 -59
-385 29 -474 216 -34 71 -55 158 -55 227 l0 38 408 2 407 3 3 74 c4 88 -25
212 -65 280 -94 161 -257 238 -446 210z m208 -131 c102 -53 180 -167 192 -282
l6 -56 -352 0 c-287 0 -351 2 -351 13 0 25 40 130 66 175 30 51 95 117 139
139 96 51 214 54 300 11z"/>
<path d="M8595 5769 c-179 -22 -334 -152 -394 -330 -50 -147 -48 -377 4 -514
80 -213 239 -325 462 -325 147 0 235 33 329 122 70 66 110 130 142 226 24 70
26 91 26 237 0 146 -2 167 -26 237 -83 248 -288 379 -543 347z m175 -115 c104
-31 188 -104 238 -208 41 -84 56 -155 55 -266 -1 -214 -85 -370 -238 -446 -54
-26 -70 -29 -155 -29 -87 0 -101 3 -161 32 -118 58 -200 174 -229 321 -17 87
-8 250 19 326 77 218 271 329 471 270z"/>
<path d="M10880 5770 c-78 -10 -142 -41 -205 -100 l-54 -52 -3 64 -3 63 -50 0
-50 0 0 -560 0 -560 50 0 50 0 5 385 c5 368 6 387 27 439 61 149 146 210 308
220 l90 6 3 36 c2 21 -2 40 -10 46 -19 15 -95 22 -158 13z"/>
<path d="M11487 5769 c-127 -14 -246 -90 -288 -183 -25 -56 -25 -176 0 -231
23 -51 89 -111 156 -141 28 -13 113 -39 187 -58 209 -53 300 -110 329 -206 26
-86 -43 -188 -152 -226 -74 -26 -233 -26 -308 0 -75 26 -148 97 -157 154 -8
52 -22 64 -71 60 -34 -3 -38 -6 -41 -34 -2 -17 7 -56 18 -87 38 -102 138 -178
271 -207 80 -18 279 -8 342 16 68 27 137 82 172 138 26 42 30 61 33 131 3 67
0 91 -18 133 -44 102 -150 165 -370 222 -214 55 -292 104 -305 194 -19 124 81
212 251 223 65 5 95 1 150 -15 109 -34 162 -88 188 -191 10 -42 14 -46 44 -49
43 -4 62 12 62 52 0 93 -65 199 -153 250 -84 49 -213 70 -340 55z"/>
<path d="M12558 5769 c-90 -13 -164 -54 -244 -133 -119 -119 -164 -242 -164
-448 0 -145 11 -201 60 -303 93 -191 239 -285 444 -285 153 0 274 50 353 147
40 49 39 62 -9 90 -26 17 -27 16 -88 -40 -49 -46 -74 -61 -131 -78 -237 -72
-458 74 -514 338 -8 37 -15 85 -15 105 l0 38 408 2 407 3 -2 105 c-2 156 -44
261 -141 352 -97 91 -223 128 -364 107z m209 -132 c29 -15 69 -43 89 -64 47
-47 94 -147 101 -217 l6 -56 -352 0 -353 0 7 33 c33 152 132 274 259 319 73
26 174 20 243 -15z"/>
<path d="M2624 5737 c-2 -7 92 -260 209 -563 l214 -549 49 0 49 0 212 545
c117 300 212 552 210 560 -2 11 -16 15 -52 15 l-49 0 -178 -455 c-98 -250
-181 -463 -185 -472 -6 -12 -58 111 -172 405 -225 579 -200 527 -256 527 -28
0 -48 -5 -51 -13z"/>
<path d="M3755 5738 c-3 -7 -4 -260 -3 -563 l3 -550 48 -3 47 -3 0 565 0 566
-45 0 c-27 0 -48 -5 -50 -12z"/>
<path d="M5118 5738 c-6 -15 306 -1096 320 -1110 5 -5 28 -8 52 -6 l42 3 144
444 c79 245 144 451 144 460 0 30 18 -5 40 -79 12 -41 78 -245 146 -452 l125
-378 49 0 c28 0 50 2 50 5 0 3 72 253 161 557 98 336 157 554 151 560 -5 5
-31 8 -57 6 l-48 -3 -112 -390 c-61 -214 -120 -423 -130 -462 -10 -40 -20 -72
-21 -70 -1 1 -57 175 -124 387 -66 212 -132 420 -146 463 l-26 77 -49 0 c-27
0 -49 -2 -49 -4 0 -6 -290 -919 -293 -923 -2 -1 -11 30 -21 70 -9 39 -68 248
-129 462 l-113 390 -51 3 c-34 2 -52 -1 -55 -10z"/>
<path d="M7135 5738 c-3 -7 92 -256 211 -552 l215 -539 -32 -91 c-80 -225
-137 -282 -273 -274 l-61 3 -3 -44 c-2 -28 1 -47 10 -52 26 -17 171 -10 215
10 51 24 115 88 142 144 43 89 531 1382 527 1394 -4 8 -23 13 -54 13 l-49 0
-179 -470 c-98 -258 -181 -470 -184 -470 -3 0 -91 212 -195 470 l-189 470 -48
0 c-30 0 -50 -5 -53 -12z"/>
<path d="M9387 5743 c-4 -3 -7 -182 -7 -397 0 -416 6 -480 50 -566 32 -64 94
-125 153 -151 47 -22 66 -24 192 -24 132 0 143 2 199 28 33 15 79 43 103 63
l43 35 0 -56 0 -56 48 3 47 3 0 560 0 560 -47 3 -47 3 -3 -403 -3 -403 -29
-63 c-33 -72 -77 -114 -156 -151 -47 -22 -69 -26 -155 -26 -120 0 -179 23
-226 88 -60 82 -62 103 -67 550 l-4 407 -42 0 c-24 0 -46 -3 -49 -7z"/>
<path d="M14373 4818 c-6 -7 -13 -65 -15 -128 -5 -119 -13 -146 -73 -247 l-20
-32 24 -25 c35 -37 56 -32 96 22 57 76 76 156 73 297 l-3 120 -36 3 c-21 2
-40 -2 -46 -10z"/>
<path d="M958 4029 c-429 -50 -748 -291 -844 -640 -25 -89 -25 -299 0 -389 61
-223 238 -409 521 -545 143 -70 222 -99 485 -180 418 -129 594 -231 666 -389
21 -46 28 -80 32 -151 8 -154 -29 -259 -124 -351 -130 -128 -373 -190 -639
-163 -379 38 -608 228 -640 532 l-7 67 -206 0 -205 0 5 -97 c20 -404 382 -736
903 -829 132 -23 401 -24 537 -1 374 64 635 245 745 517 43 107 56 191 50 330
-9 216 -66 357 -205 502 -162 170 -372 276 -812 409 -332 101 -475 168 -581
270 -172 166 -168 442 9 611 118 112 261 158 493 159 158 0 258 -20 369 -73
179 -86 279 -236 305 -460 l6 -58 205 0 204 0 0 64 c0 35 -11 106 -24 159 -68
267 -240 469 -509 597 -211 101 -471 139 -739 109z"/>
<path d="M2830 3485 l0 -275 -210 0 -210 0 0 -155 0 -155 210 0 209 0 3 -792
c4 -872 1 -833 67 -973 104 -223 345 -307 689 -239 l82 17 0 165 0 164 -27 -6
c-16 -3 -74 -9 -130 -13 -150 -9 -215 22 -260 122 -17 37 -18 93 -21 798 l-3
757 216 0 215 0 0 155 0 155 -215 0 -215 0 0 275 0 275 -200 0 -200 0 0 -275z"/>
<path d="M6600 3485 l0 -275 -210 0 -210 0 0 -155 0 -155 210 0 209 0 3 -792
c4 -872 1 -833 67 -973 104 -223 345 -307 689 -239 l82 17 0 165 0 164 -27 -6
c-16 -3 -74 -9 -130 -13 -150 -9 -215 22 -260 122 -17 37 -18 93 -21 798 l-3
757 216 0 215 0 0 155 0 155 -215 0 -215 0 0 275 0 275 -200 0 -200 0 0 -275z"/>
<path d="M4808 3235 c-290 -46 -538 -207 -653 -426 -33 -63 -64 -172 -65 -226
l0 -23 205 0 205 0 0 38 c0 90 105 219 223 272 82 37 161 52 270 52 193 -1
327 -65 404 -193 47 -79 63 -153 63 -295 l0 -122 -297 -5 c-309 -5 -398 -14
-552 -57 -289 -81 -487 -269 -546 -516 -26 -110 -18 -305 17 -402 90 -251 317
-415 623 -452 266 -32 503 41 713 218 28 24 52 42 52 39 0 -16 31 -166 41
-194 l11 -33 209 0 209 0 0 28 c0 16 -9 54 -19 84 -51 148 -54 197 -61 938 -5
618 -8 702 -24 755 -101 351 -394 537 -841 534 -55 -1 -139 -7 -187 -14z m652
-1447 l0 -231 -31 -49 c-44 -68 -147 -159 -227 -201 -190 -99 -387 -111 -549
-32 -144 71 -210 189 -201 358 8 139 77 237 213 302 139 66 248 83 558 84
l237 1 0 -232z"/>
<path d="M10706 3239 c-326 -48 -593 -243 -741 -544 -96 -195 -135 -376 -135
-634 0 -314 62 -545 205 -761 198 -299 563 -460 951 -421 640 65 1009 620 923
1388 -58 523 -390 897 -859 968 -103 16 -250 18 -344 4z m289 -334 c307 -65
500 -350 521 -775 12 -223 -24 -418 -109 -590 -54 -110 -169 -229 -269 -278
-178 -87 -402 -77 -569 24 -257 155 -387 552 -323 982 31 211 101 361 223 482
147 145 325 197 526 155z"/>
<path d="M7631 3203 c0 -5 183 -514 407 -1133 l408 -1124 -58 -155 c-78 -209
-102 -256 -173 -327 -86 -87 -139 -106 -318 -112 l-137 -4 2 -162 3 -161 65
-12 c80 -15 259 -16 320 -2 182 42 357 199 460 413 29 60 234 632 511 1426
254 729 464 1333 467 1343 4 16 -11 17 -210 17 l-215 0 -158 -507 c-87 -280
-206 -662 -264 -849 l-107 -342 -283 849 -283 849 -219 0 c-120 0 -219 -3
-218 -7z"/>
<path d="M12393 2373 c3 -805 4 -842 24 -928 40 -174 97 -284 197 -385 74 -74
182 -132 302 -162 72 -18 117 -22 239 -21 266 0 451 61 603 198 48 43 50 44
56 22 3 -12 6 -59 6 -104 l0 -83 190 0 190 0 0 1150 0 1150 -200 0 -200 0 0
-838 0 -839 -38 -59 c-42 -64 -106 -127 -171 -168 -141 -90 -427 -118 -568
-56 -93 41 -171 143 -210 277 -15 52 -17 144 -21 871 l-3 812 -200 0 -200 0 4
-837z"/>
</g>
</svg>
