<svg version="1.0" xmlns="http://www.w3.org/2000/svg"
 width="100.000000pt" height="100.000000pt" viewBox="0 0 370.000000 370.000000"
 preserveAspectRatio="xMidYMid meet">
<title>Statyou logo</title>
<g transform="translate(0.000000,370.000000) scale(0.100000,-0.100000)"
fill="#ffffff" stroke="none">
<path d="M1947 3493 c-4 -104 -7 -218 -7 -255 l0 -68 49 0 c112 0 318 -54 456
-120 176 -85 356 -233 471 -389 32 -42 60 -80 64 -84 7 -8 423 247 428 263 5
15 -89 145 -176 245 -175 199 -407 363 -660 467 -166 68 -437 128 -578 128
l-41 0 -6 -187z"/>
<path d="M1715 3590 c-443 -32 -843 -222 -1156 -547 -613 -637 -662 -1637
-115 -2338 85 -108 261 -275 376 -357 109 -77 315 -184 441 -227 768 -264
1621 19 2070 688 354 526 403 1197 130 1776 -27 58 -56 108 -65 111 -12 4
-396 -207 -430 -237 -5 -4 9 -45 32 -91 48 -98 83 -201 108 -319 25 -116 25
-361 1 -479 -57 -267 -184 -500 -373 -680 -44 -41 -94 -86 -111 -98 l-33 -23
0 135 0 136 -80 0 -80 0 0 -185 0 -186 -42 -19 -43 -19 -3 429 -2 430 -80 0
-80 0 0 -458 0 -459 -51 -11 c-28 -7 -55 -12 -60 -12 -5 0 -9 146 -9 360 l0
360 -80 0 -80 0 0 -370 0 -370 -40 0 -40 0 0 510 0 510 -75 0 -75 0 0 -504 0
-503 -42 8 c-24 4 -46 8 -50 9 -5 0 -8 74 -8 165 l0 165 -80 0 -80 0 0 -140 0
-139 -45 17 -45 16 0 373 0 373 -75 0 -75 0 -2 -330 -3 -330 -47 33 -47 32 -1
123 0 122 -75 0 -75 0 0 -52 -1 -53 -39 45 c-138 156 -243 376 -287 598 -21
107 -23 336 -4 442 20 112 67 253 121 360 205 407 599 669 1063 705 l87 7 0
254 0 254 -22 -1 c-13 -1 -68 -5 -123 -9z"/>
</g>
</svg>
